<svg xmlns="http://www.w3.org/2000/svg" viewBox="0 0 32 32" stroke-width="2%"><style>.s{fill:#fff;stroke:#000;stroke-miterlimit:0}</style><path class="s" d="M6 16h10V6l4-4h-9L6 6v10h0zM6 6h10H6h0z"/><path class="s" d="M20 2v10l-4 4V6l4-4zM16 26h10V16l4-4H20l-4 4v10h0zM16 16h10-10 0z"/><path class="s" d="M30 12v9l-4 5V16l4-4zM2 30h10V20l4-4H6l-4 4v10h0zM2 20h10H2h0z"/><path class="s" d="M16 16v10l-4 4V20l4-4z"/><path fill="#fff" d="M9 18v-5l2-2v5l-2 2z"/><path class="s" d="M11 11l-2 2v5"/><path fill="#fff" d="M18 9h5v5h-5z"/><path class="s" d="M18 9h5v5"/><path fill="#fff" d="M21 21l-2 2h-5l2-2h5z"/><path fill="none" stroke="#000" d="M21 21l-2 2h-5"/></svg>
