<svg xmlns="http://www.w3.org/2000/svg" viewBox="0 0 512 512" stroke-width="1%"><style>.st1{stroke:#000;stroke-miterlimit:0}.st1,.st2{fill:#fff}</style><path class="st1" d="M165 256h91v-91l39-39h-91l-39 39v91zm0-91h91-91z"/><path class="st1" d="M295 126v91l-39 39v-91zm-39 221h91v-91l39-39h-91l-39 39v91zm0-91h91-91z"/><path class="st1" d="M386 217v91l-39 39v-91zM126 386h91v-91l39-39h-91l-39 39v91zm0-91h91-91z"/><path class="st1" d="M256 256v91l-39 39v-90z"/><path class="st2" d="M191 276v-46l20-19v45z"/><path class="st1" d="M211 211l-20 19v46"/><g><path class="st2" d="M276 191h45v45h-45z"/><path class="st1" d="M276 191h45v45"/></g><g><path class="st2" d="M302 302l-20 19h-46l20-19z"/><path fill="none" stroke="#000" stroke-miterlimit="10" d="M302 302l-20 19h-46"/></g></svg>
